<svg id="svg" xmlns="http://www.w3.org/2000/svg" viewBox="22.310001373291016 20.850000381469727 441.6600036621094 328.7799987792969" height="328.7799987792969"><path d="M 207.42,30.85 L 207.33,31.02 L 207.33,32.11 L 207.33,35.28 L 207.33,40.02 L 207.33,43.18 L 207.33,45.51 L 207.33,47.01 L 207.33,47.69 L 207.33,48.37 L 207.33,49.04 L 207.33,49.72 L 207.33,50.74 L 207.33,51.42 L 207.33,52.1 L 207.33,52.44 L 207.5,52.77" fill="none" stroke="#cccccc" stroke-width="2"></path><path d="M 164.74,71.06 L 165.05,72.82 L 165.05,75.98 L 165.05,79.15 L 165.69,81.48 L 165.94,82.56 L 165.94,83.07 L 165.94,83.41 L 165.94,83.58 L 165.94,83.75 L 165.77,83.92 L 165.6,83.92" fill="none" stroke="#cccccc" stroke-width="2"></path><path d="M 260.48,71.08 L 260.4,71.25 L 260.4,73.67 L 260.4,74.42 L 260.4,79.25 L 260.4,84.08 L 260.4,88.08 L 260.88,92.91 L 260.88,94.41 L 260.88,95.09 L 260.88,95.42 L 260.88,95.59 L 260.71,95.59 L 260.37,95.25" fill="none" stroke="#cccccc" stroke-width="2"></path><path d="M 213.46,110.58 L 213.03,110.58 L 212.86,110.58 L 212.69,110.58 L 212.69,110.24 L 212.69,108.58 L 212.69,107.83 L 214.05,105.73 L 214.39,105.73 L 215.48,105.23 L 216.56,105.23 L 217.41,105.91 L 217.83,107 L 219.53,109.68 L 219.92,112.84 L 219.53,116 L 215.64,121.92 L 212.26,125.3 L 208.75,128.03 L 206.06,129.73 L 201.23,131.18 L 198.16,131.43 L 197.41,131.84 L 197.24,131.84 L 197.24,132.01 L 197.99,132.01 L 198.73,131.76 L 201.15,131.28 L 210.07,130.8 L 217.4,130.8 L 226.41,130.8 L 232.07,130.32 L 236.07,130.32 L 237.16,130.32 L 237.5,130.32 L 237.84,130.32 L 237.67,130.32 L 237.5,130.32" fill="none" stroke="#cccccc" stroke-width="2"></path><path d="M 132.43,113.46 L 132.51,113.63 L 133.01,115.12 L 134.72,122.46 L 135.79,128.96 L 135.79,132.96 L 135.79,136.12 L 135.79,137.21 L 135.79,137.55 L 135.79,137.72 L 135.62,137.72 L 135.45,137.72" fill="none" stroke="#cccccc" stroke-width="2"></path><path d="M 291.32,116.37 L 291.23,116.72 L 291.23,119.13 L 293.28,124.8 L 293.82,129.63 L 294.61,132.8 L 295.49,136.8 L 295.66,137.47 L 295.91,138.39 L 296.07,138.9 L 296.07,139.07" fill="none" stroke="#cccccc" stroke-width="2"></path><path d="M 162.06,169.23 L 162.14,168.15 L 162.65,167.47 L 163.57,167.05 L 164.08,166.54 L 165.16,166.54 L 167.49,166.94 L 170.26,168.92 L 172.69,171.6 L 173.73,173.93 L 173.73,175.42 L 172.94,178.09 L 172.26,178.6 L 169.19,178.99 L 168.44,178.99 L 165.27,178.99 L 164.19,178.99 L 164.02,178.99 L 164.19,178.82 L 165.1,178.82 L 166.53,179.07 L 166.87,179.24 L 168.36,179.99 L 171.57,183.05 L 173,184.99 L 173.25,186.07 L 173.25,187.57 L 173,188.66 L 172.33,189.74 L 171.5,190.66 L 170.41,190.83 L 166.41,191.23 L 163.33,191.23 L 160.17,190.83 L 159.49,190.66 L 159.15,190.66 L 158.98,190.66 L 158.81,190.66" fill="none" stroke="#cccccc" stroke-width="2"></path><path d="M 269.68,161.15 L 269.76,160.99 L 270.85,160.65 L 271.93,160.48 L 275.93,160.87 L 278.26,162.16 L 280.2,163.85 L 280.37,164.93 L 280.37,167.26 L 279.7,168.35 L 278.2,169.35 L 277.29,170.01 L 276.37,170.51 L 276.03,170.68 L 276.03,170.85 L 276.37,170.85 L 277.45,170.85 L 278.54,171.27 L 279.22,171.95 L 283.39,176.59 L 283.79,180.59 L 284.04,183.67 L 283.25,186.83 L 282.58,187.92 L 281.08,188.42 L 280,188.59 L 276,188.59 L 273.67,188.59 L 268.84,188.05 L 266.08,187.39 L 263.84,186.65 L 263.5,186.65 L 263.16,186.48 L 262.99,186.48 L 262.82,186.65" fill="none" stroke="#cccccc" stroke-width="2"></path><path d="M 84.69,172.67 L 85.4,175 L 87.33,179.84 L 90.12,187.17 L 90.6,192.84 L 91.63,198.51 L 91.63,202.5 L 91.63,203.18 L 91.63,203.35 L 91.63,202.84 L 92.38,202.84" fill="none" stroke="#cccccc" stroke-width="2"></path><path d="M 340.26,158.4 L 340.17,158.58 L 340.65,163.41 L 342.22,169.08 L 343.73,174.75 L 344.7,181.16 L 344.95,183.49 L 344.95,184 L 344.95,184.34 L 344.95,184.51" fill="none" stroke="#cccccc" stroke-width="2"></path><path d="M 132.27,247.37 L 132.18,247.2 L 132.18,246.86 L 132.18,245.37 L 132.57,243.04 L 132.97,239.04 L 133.85,235.04 L 134.39,229.38 L 134.39,224.54 L 134.39,219.71 L 134.39,214.97 L 134.22,214.8 L 134.22,214.63 L 133.88,214.8 L 133.71,214.97 L 131.28,217.65 L 127.18,221.81 L 121.26,225.59 L 113.18,229.15 L 110.01,230.85 L 109.34,231.19 L 109.17,231.36 L 109,231.52 L 109,231.69 L 109.17,231.69 L 109.34,231.69 L 122.43,231.15 L 132.26,231.15 L 144.6,231.15 L 154.44,231.15 L 160.11,231.15 L 161.03,231.15 L 161.03,231.32 L 161.03,231.49" fill="none" stroke="#cccccc" stroke-width="2"></path><path d="M 221.92,223.54 L 222.09,223.54 L 222.34,223.37 L 224.67,223.37 L 227.84,223.37 L 231.83,223.37 L 232.17,223.37 L 231.83,223.37 L 231.49,223.71 L 231,224.46 L 228.52,227.97 L 224.74,233.89 L 223.29,235.82 L 221.62,241.4 L 221.22,244.57 L 221.22,245.65 L 221.64,246.57 L 222.15,247.08 L 222.83,247.59 L 232.58,249.21 L 235.83,249.21 L 247.25,249.21 L 249.67,248.73 L 253,247.2 L 253.17,246.29 L 253.17,245.2 L 252.75,244.11 L 252.75,243.6 L 252.41,243.27 L 252.07,242.93 L 249.74,242.53 L 247.41,242.53 L 245.08,242.93 L 241.92,243.72 L 240.42,243.97 L 239.92,244.31 L 239.75,244.31 L 239.58,244.31 L 239.41,244.31 L 239.24,244.31 L 239.07,244.48" fill="none" stroke="#cccccc" stroke-width="2"></path><path d="M 310.35,218.73 L 310.26,220.48 L 310.26,223.73 L 306.9,232.9 L 305.82,236.15 L 301.73,241.69 L 301.32,242.6 L 301.15,243.11 L 301.15,243.28 L 301.15,243.45 L 303.48,243.06 L 306.64,241.87 L 316.39,240.25 L 322.89,239.7 L 327.73,239.7 L 330.05,239.7 L 330.22,239.7 L 330.22,239.87 L 330.05,239.87" fill="none" stroke="#cccccc" stroke-width="2"></path><path d="M 324.27,233.35 L 324.18,233.69 L 324.18,234.44 L 324.66,239.27 L 325.21,245.77 L 325.21,253.86 L 325.21,255.78 L 325.21,257.36 L 325.21,258.04 L 325.21,258.21 L 325.21,258.38" fill="none" stroke="#cccccc" stroke-width="2"></path><path d="M 384.54,231.05 L 385.54,234.31 L 389.5,241.06 L 392.03,246.73 L 394.93,253.98 L 395.41,256.39 L 396.06,259.47 L 396.06,260.22 L 396.06,260.73 L 396.06,261.23 L 395.89,261.4 L 395.89,261.57 L 395.72,261.57" fill="none" stroke="#cccccc" stroke-width="2"></path><path d="M 48.62,237.38 L 48.53,237.55 L 49.98,242.38 L 52.27,249.72 L 53.24,255.38 L 53.72,260.21 L 53.97,261.71 L 54.14,262.8 L 54.14,262.97 L 54.14,263.14" fill="none" stroke="#cccccc" stroke-width="2"></path><path d="M 32.73,301.89 L 32.48,301.89 L 32.31,302.98 L 32.31,306.14 L 32.79,314.22 L 33.29,315.72 L 33.54,317.22 L 33.79,318.3 L 33.79,318.81 L 33.79,319.15 L 33.79,319.32 L 33.79,319.49 L 33.62,319.49 L 33.45,319.15" fill="none" stroke="#cccccc" stroke-width="2"></path><path d="M 96.21,309.54 L 97.88,309.15 L 103.54,309.15 L 110.88,309.15 L 119.88,309.15 L 126.39,309.64 L 128.14,309.81 L 127.97,309.81 L 127.22,310.06 L 125.64,310.06 L 110.88,309.44 L 106.05,309.44 L 101.21,309.44 L 101.05,309.44 L 100.88,309.44 L 100.88,309.61 L 100.88,309.95 L 100.88,310.29 L 100.88,310.46 L 101.12,311.95 L 102.17,314.28 L 102.81,316.61 L 102.98,317.29 L 102.81,317.12 L 102.81,316.95 L 102.81,316.78 L 102.98,316.44 L 103.49,316.27 L 105.82,316.27 L 108.15,317.56 L 111.66,319.8 L 114.95,322.78 L 115.29,323.12 L 115.46,323.63 L 115.46,324.14 L 115.29,324.64 L 114.78,325.15 L 113.29,325.9 L 109.77,328.14 L 106.61,329.36 L 104.28,329.61 L 103.19,329.61 L 102.34,329.61 L 102,329.44 L 101.67,329.1 L 101.16,329.1 L 100.65,329.1 L 100.14,329.1 L 99.97,329.1" fill="none" stroke="#cccccc" stroke-width="2"></path><path d="M 169.02,307.25 L 168.93,307.42 L 169.42,309.84 L 171.47,315.51 L 174.39,323.68 L 175.9,329.34 L 176.93,335.01 L 177.18,338.92 L 177.18,339.43 L 177.18,339.26 L 177.18,338.51" fill="none" stroke="#cccccc" stroke-width="2"></path><path d="M 188,318.78 L 187.57,319.13 L 187.18,321.46 L 187.18,325.45 L 187.57,328.62 L 188.76,331.78 L 190.39,334.45 L 192.18,336.55 L 193.67,337.55 L 196,338.84 L 199.17,339.23 L 202.33,339.63 L 205.49,339.23 L 206.75,338.48 L 207.09,337.8 L 207.09,336.3 L 206.52,334.38 L 205.56,332.46 L 204.67,330.13 L 203.14,328.61 L 201.12,326.33 L 199.19,324.65 L 196.86,323.61 L 194.53,323.36 L 193.44,322.94 L 191.52,322.94 L 189.19,322.94 L 188.1,322.94 L 187.76,323.11 L 187.76,323.45 L 187.76,323.79 L 187.76,324.47 L 187.76,324.81 L 187.76,325.31" fill="none" stroke="#cccccc" stroke-width="2"></path><path d="M 277.5,299.84 L 277.41,299.68 L 277.58,299.85 L 278.07,302.26 L 279.52,307.09 L 280.16,312.67 L 280.89,315.84 L 281.29,317.76 L 281.71,318.85 L 281.71,319.35 L 281.71,319.69 L 281.71,320.03 L 281.54,320.2 L 281.54,320.37 L 281.37,320.37" fill="none" stroke="#cccccc" stroke-width="2"></path><path d="M 292.63,309.62 L 292.63,310.37 L 292.54,313.54 L 292.54,318.28 L 293.11,320.03 L 293.52,321.12 L 294.88,322.48 L 296.41,324 L 298.34,325.44 L 301.5,326.62 L 303.83,326.87 L 306.91,326.62 L 308.83,326.06 L 309.67,324.97 L 309.92,322.64 L 309.92,319.48 L 308.7,316.31 L 306.12,312.46 L 303.92,310.03 L 300.89,307.3 L 299.4,306.56 L 297.48,305.99 L 295.15,305.99 L 292.82,305.99 L 289.48,307.13 L 289.48,307.3 L 289.48,307.47 L 289.65,307.81 L 289.99,308.31 L 290.16,308.65" fill="none" stroke="#cccccc" stroke-width="2"></path><path d="M 361.73,302 L 361.81,302 L 362.49,301.83 L 365.65,301.43 L 367.15,301.19 L 368.23,300.94 L 369.32,300.77 L 369.83,300.6 L 370,300.6 L 369.83,300.6 L 369.08,300.85 L 363.41,301.33 L 354.41,301.33 L 347.91,301.33 L 344.74,301.33 L 343.83,301.33 L 343.66,301.5 L 343.66,301.84 L 343.83,303.09 L 346.08,307.93 L 346.81,311.09 L 347.32,311.77 L 347.49,312.11 L 347.66,312.11 L 347.83,311.94 L 349.66,310.77 L 353.18,308.93 L 356.34,308.93 L 358.67,308.93 L 359.59,309.35 L 361.53,312.03 L 362.82,314.36 L 363.57,315.85 L 363.82,316.94 L 364.07,318.02 L 363.82,319.52 L 362.98,320.78 L 361.9,321.12 L 360.98,321.53 L 359.89,321.53 L 358.81,321.53 L 357.72,321.53 L 357.04,321.53 L 356.7,321.53 L 356.53,321.36 L 356.53,321.19" fill="none" stroke="#cccccc" stroke-width="2"></path><path d="M 439.64,295 L 439.71,295.17 L 441.16,297.59 L 443.58,301.94 L 446.3,308.44 L 448.17,313.27 L 450.19,318.1 L 452.04,322.1 L 452.79,323.6 L 453.12,324.28 L 453.46,324.95 L 453.63,325.46 L 453.97,325.97 L 453.97,326.14 L 453.97,326.31 L 453.97,326.48 L 453.8,326.48" fill="none" stroke="#cccccc" stroke-width="2"></path></svg>